<?xml version="1.0" standalone="no"?>
<!DOCTYPE svg PUBLIC "-//W3C//DTD SVG 20010904//EN"
 "http://www.w3.org/TR/2001/REC-SVG-20010904/DTD/svg10.dtd">
<svg version="1.0" xmlns="http://www.w3.org/2000/svg"
 width="511.000000pt" height="511.000000pt" viewBox="0 0 511.000000 511.000000"
 preserveAspectRatio="xMidYMid meet">
<metadata>
Created by potrace 1.11, written by Peter Selinger 2001-2013
</metadata>
<g transform="translate(0.000000,511.000000) scale(0.100000,-0.100000)"
fill="#000000" stroke="none">
<path d="M2487 5104 c-1 -2 -38 -4 -82 -5 -312 -8 -691 -109 -992 -264 -157
-81 -181 -94 -274 -156 -593 -397 -993 -1020 -1104 -1714 -7 -49 -17 -108 -21
-130 -9 -57 -12 -457 -3 -524 4 -31 10 -81 14 -111 11 -92 45 -249 76 -359
198 -682 680 -1257 1324 -1578 72 -36 280 -121 340 -139 97 -29 197 -56 225
-60 19 -3 37 -7 40 -9 5 -3 140 -26 240 -41 71 -10 458 -12 535 -3 357 45 684
143 933 281 119 65 150 84 242 146 457 310 803 758 982 1272 17 47 32 92 34
100 2 8 14 56 28 106 13 51 27 107 30 125 3 19 10 57 15 84 5 28 12 75 16 105
3 30 8 72 11 93 15 115 6 451 -18 597 -5 36 -12 79 -14 95 -10 65 -66 278 -98
372 -57 166 -144 349 -236 498 -44 73 -143 216 -163 237 -7 7 -30 35 -52 63
-66 82 -212 230 -299 304 -85 71 -241 191 -250 191 -3 0 -39 22 -80 49 -295
192 -742 338 -1121 366 -86 7 -274 12 -278 9z m338 -219 c129 -17 163 -23 261
-45 81 -19 261 -73 299 -90 11 -5 58 -25 105 -45 47 -20 123 -57 170 -82 79
-43 270 -163 297 -187 6 -6 26 -22 44 -36 120 -90 297 -267 387 -385 25 -33
49 -62 52 -65 36 -33 179 -274 240 -405 79 -168 159 -417 184 -575 3 -19 8
-48 11 -65 26 -153 27 -557 1 -700 -2 -11 -7 -38 -11 -60 -4 -22 -9 -51 -11
-65 -14 -76 -71 -270 -110 -368 -179 -460 -497 -854 -903 -1121 -147 -96 -229
-139 -446 -231 -123 -52 -367 -114 -530 -135 -246 -31 -563 -21 -768 24 -23 6
-56 12 -72 15 -55 10 -236 66 -329 103 -367 144 -718 401 -964 705 -155 191
-316 477 -392 692 -34 99 -87 292 -94 346 -3 19 -10 62 -16 95 -23 136 -30
369 -17 540 69 891 666 1684 1507 2003 92 35 258 85 323 97 12 3 45 9 72 15
77 15 103 19 174 26 36 3 67 7 69 9 9 9 383 1 467 -10z"/>
<path d="M2530 3419 c-190 -22 -339 -81 -470 -187 -200 -160 -320 -405 -323
-657 -3 -211 38 -347 162 -535 9 -12 24 -2 84 58 l74 74 -32 53 c-17 29 -43
86 -56 127 -21 62 -24 92 -24 203 1 117 4 138 29 210 65 182 190 317 368 398
185 84 452 64 611 -46 l29 -20 74 74 74 74 -27 20 c-82 59 -226 123 -318 140
-94 17 -185 22 -255 14z"/>
<path d="M2656 2481 c-54 -54 -94 -101 -90 -103 5 -3 106 -4 224 -3 118 1 222
-2 230 -6 13 -6 15 -33 14 -165 l-2 -158 -29 -23 c-200 -163 -529 -177 -755
-32 l-49 32 -70 -69 c-38 -38 -69 -72 -69 -76 0 -4 19 -20 43 -36 346 -239
790 -206 1102 81 l35 32 0 312 0 313 -243 0 -242 0 -99 -99z"/>
</g>
</svg>
